<?xml version="1.0" ?><svg data-name="Layer 1" id="Layer_1" viewBox="0 0 32 32" xmlns="http://www.w3.org/2000/svg"><path d="M25,30H9a3,3,0,0,1-3-3V5A3,3,0,0,1,9,2H25a3,3,0,0,1,3,3V27A3,3,0,0,1,25,30ZM9,4A1,1,0,0,0,8,5V27a1,1,0,0,0,1,1H25a1,1,0,0,0,1-1V5a1,1,0,0,0-1-1Z"/><path d="M8,25H5a1,1,0,0,1,0-2H8a1,1,0,0,1,0,2Z"/><path d="M8,21H5a1,1,0,0,1,0-2H8a1,1,0,0,1,0,2Z"/><path d="M8,17H5a1,1,0,0,1,0-2H8a1,1,0,0,1,0,2Z"/><path d="M8,13H5a1,1,0,0,1,0-2H8a1,1,0,0,1,0,2Z"/><path d="M8,9H5A1,1,0,0,1,5,7H8A1,1,0,0,1,8,9Z"/><path d="M23,9H15a1,1,0,0,1,0-2h8a1,1,0,0,1,0,2Z"/><path d="M12,9H11a1,1,0,0,1,0-2h1a1,1,0,0,1,0,2Z"/><path d="M23,13H15a1,1,0,0,1,0-2h8a1,1,0,0,1,0,2Z"/><path d="M12,13H11a1,1,0,0,1,0-2h1a1,1,0,0,1,0,2Z"/><path d="M23,17H15a1,1,0,0,1,0-2h8a1,1,0,0,1,0,2Z"/><path d="M12,17H11a1,1,0,0,1,0-2h1a1,1,0,0,1,0,2Z"/><path d="M23,21H15a1,1,0,0,1,0-2h8a1,1,0,0,1,0,2Z"/><path d="M12,21H11a1,1,0,0,1,0-2h1a1,1,0,0,1,0,2Z"/></svg>